# xmcd
#
# Track frame offsets:
#	151
#	9346
#	17847
#	32485
#	46098
#	58743
#	73168
#	84816
#	98410
#	111429
#	120221
#	132281
#	146479
#	161689
#	178150
#	186919
#	198427
#	212206
#	229693
#	245245
#	258894
#
# Disc length: 3695 seconds
#
# Revision: 0
# Processed by: cddbd v1.4PL0 Copyright (c) Steve Scherf et al.
# Submitted via: EasyCDDAExtractor 4.6.0.1
#
DISCID=1d0e6d15
DTITLE=Dr.Feelgood - BBC Sessions 1973-1978
DYEAR=2001
DGENRE=Blues
TTITLE0=She Does It Right
TTITLE1=I Don't Mind
TTITLE2=Riot In Cell Block #9
TTITLE3=Tore Down
TTITLE4=Checking Up On My Baby
TTITLE5=The More I Give
TTITLE6=Boom Boom
TTITLE7=All Through The City
TTITLE8=Talk To Me Baby
TTITLE9=I Don't Mind
TTITLE10=I'm Hog For You Baby
TTITLE11=Keep It Out Of Sight
TTITLE12=Route 66
TTITLE13=You Upset Me Baby
TTITLE14=She's Wind Up
TTITLE15=Baby Jane
TTITLE16=Ninety-nine And A Half
TTITLE17=Night Time
TTITLE18=Take A Tip
TTITLE19=Down At The Doctors
TTITLE20=Sugar Shaker
EXTD=
EXTT0=
EXTT1=
EXTT2=
EXTT3=
EXTT4=
EXTT5=
EXTT6=
EXTT7=
EXTT8=
EXTT9=
EXTT10=
EXTT11=
EXTT12=
EXTT13=
EXTT14=
EXTT15=
EXTT16=
EXTT17=
EXTT18=
EXTT19=
EXTT20=
PLAYORDER=
